<?xml version="1.0" encoding="UTF-8" ?>
<!DOCTYPE svg PUBLIC "-//W3C//DTD SVG 1.1//EN" "http://www.w3.org/Graphics/SVG/1.1/DTD/svg11.dtd">
<svg width="440pt" height="413pt" viewBox="0 0 440 413" version="1.1" xmlns="http://www.w3.org/2000/svg">
<path fill="#ffffff" d=" M 0.00 0.00 L 440.00 0.00 L 440.00 413.00 L 0.00 413.00 L 0.00 0.00 Z" />
<path fill="#555454" d=" M 134.28 59.20 C 157.83 38.73 188.48 25.07 220.07 26.10 C 249.25 27.34 276.62 41.66 297.36 61.66 C 298.19 65.02 297.60 68.57 297.75 72.00 C 297.89 86.92 297.86 101.83 297.87 116.75 C 296.28 117.27 294.70 117.77 293.11 118.25 C 293.11 119.71 293.09 121.16 293.04 122.61 L 292.58 123.63 C 292.21 121.91 291.85 120.19 291.54 118.46 C 287.30 119.04 283.11 119.98 279.01 121.20 C 282.83 133.76 285.08 147.04 282.93 160.14 C 281.99 167.96 279.01 175.29 276.83 182.80 C 292.26 179.72 307.83 177.31 323.18 173.85 C 318.71 170.72 313.90 167.90 310.32 163.70 C 304.15 156.57 300.01 147.94 296.78 139.15 C 295.12 134.07 292.77 128.90 293.41 123.43 C 296.88 136.46 300.99 149.77 309.46 160.53 C 312.79 164.54 316.54 168.35 321.18 170.84 C 323.87 172.32 326.92 173.04 329.53 174.71 C 311.60 178.04 293.67 181.41 275.74 184.75 C 269.39 196.81 260.24 207.58 248.49 214.67 C 228.18 227.64 200.76 228.16 179.90 216.12 C 170.19 210.58 161.69 202.83 155.58 193.44 C 154.00 191.14 152.54 188.10 149.37 187.88 C 134.91 185.34 120.42 182.88 105.96 180.31 C 102.87 179.75 99.64 179.57 96.82 178.09 C 99.21 176.63 102.18 176.91 104.63 175.59 C 109.94 172.80 113.89 168.09 117.22 163.22 C 126.19 149.56 131.46 133.88 135.88 118.27 C 134.54 117.79 133.21 117.28 131.85 116.83 C 131.82 99.22 131.74 81.61 131.63 64.00 C 131.28 61.90 132.84 60.43 134.28 59.20 Z" />
<path fill="#ffffff" d=" M 133.01 62.21 C 154.66 42.52 182.67 28.75 212.21 27.41 C 232.77 26.56 253.27 32.56 270.83 43.13 C 280.02 48.45 288.29 55.16 296.26 62.14 C 296.50 68.75 296.44 75.37 296.16 81.98 C 296.03 93.27 296.26 104.55 296.05 115.84 C 289.32 117.50 282.54 119.12 275.62 119.71 C 268.20 121.44 260.68 122.75 253.07 123.16 C 246.76 124.55 240.25 123.52 233.93 124.83 C 220.29 125.20 206.63 125.06 192.98 124.91 C 188.66 124.24 184.30 123.84 179.92 123.96 C 170.06 122.83 160.11 122.00 150.46 119.53 C 144.61 118.47 138.79 117.28 133.03 115.83 C 133.09 97.96 132.82 80.08 133.01 62.21 Z" />
<path fill="#f60404" d=" M 204.25 51.25 C 210.75 51.38 217.25 51.39 223.76 51.24 C 223.56 57.61 223.76 63.99 223.60 70.36 C 230.27 70.28 236.94 70.41 243.60 70.27 C 243.32 76.42 243.36 82.58 243.56 88.73 C 236.84 88.58 230.13 88.75 223.41 88.62 C 223.48 94.95 223.30 101.28 223.54 107.61 C 217.12 107.48 210.69 107.47 204.27 107.63 C 204.42 101.29 204.25 94.95 204.39 88.61 C 198.00 88.77 191.60 88.53 185.21 88.78 C 185.40 82.59 185.40 76.40 185.21 70.22 C 191.60 70.46 197.99 70.25 204.37 70.37 C 204.26 64.00 204.43 57.62 204.25 51.25 Z" />
<path fill="#d1a260" d=" M 137.19 118.29 C 140.44 119.19 144.64 118.86 147.14 121.13 C 144.55 129.86 142.12 138.80 142.32 147.99 C 141.86 161.22 145.85 174.11 150.95 186.16 C 142.23 185.24 133.67 183.22 125.01 181.90 C 117.91 180.53 110.72 179.66 103.69 177.98 C 107.03 175.61 110.57 173.41 113.35 170.35 C 118.61 164.59 122.31 157.64 125.66 150.66 C 130.56 140.28 134.14 129.34 137.19 118.29 Z" />
<path fill="#d1a260" d=" M 279.01 121.20 C 283.11 119.98 287.30 119.04 291.54 118.46 C 291.85 120.19 292.21 121.91 292.58 123.63 L 293.04 122.61 L 293.49 121.63 C 293.47 122.08 293.43 122.98 293.41 123.43 C 292.77 128.90 295.12 134.07 296.78 139.15 C 300.01 147.94 304.15 156.57 310.32 163.70 C 313.90 167.90 318.71 170.72 323.18 173.85 C 307.83 177.31 292.26 179.72 276.83 182.80 C 279.01 175.29 281.99 167.96 282.93 160.14 C 285.08 147.04 282.83 133.76 279.01 121.20 Z" />
<path fill="#ffffff" d=" M 149.00 121.39 C 159.79 124.08 170.90 125.14 181.96 125.97 C 187.01 125.69 191.93 127.08 196.97 127.00 C 207.66 127.01 218.34 126.99 229.03 127.01 C 234.07 127.12 238.98 125.63 244.04 125.99 C 255.10 125.29 266.13 123.97 276.98 121.66 C 281.15 132.18 282.93 143.69 282.12 154.98 C 280.36 168.27 276.75 181.76 268.77 192.76 C 258.89 207.50 243.20 218.36 225.74 221.82 C 203.37 226.82 179.13 217.90 163.87 201.14 C 157.15 193.69 151.50 185.02 148.53 175.38 C 144.29 163.15 142.20 149.81 144.83 137.00 C 145.59 131.65 147.04 126.43 149.00 121.39 Z" />
</svg>
